<?xml version="1.0" standalone="no"?>
<!DOCTYPE svg PUBLIC "-//W3C//DTD SVG 1.1//EN" "http://www.w3.org/Graphics/SVG/1.1/DTD/svg11.dtd" >
<svg xmlns="http://www.w3.org/2000/svg" xmlns:xlink="http://www.w3.org/1999/xlink" version="1.1" viewBox="-10 0 1840 2048">
   <path fill="currentColor"
d="M387 1352q-9 5 -18.5 9.5t-16.5 7.5q-6 3 -10 3q-22 0 -22 -23q0 -12 11 -19q158 -87 320.5 -211t161.5 -338q-1 -134 -90 -276t-270 -142q-123 0 -228 86.5t-105 193.5q0 111 64 194t205 104q113 3 182 -47q9 -7 21.5 -21.5t24.5 -14.5q15 0 19 13t-5 22q-23 25 -65 51
q-66 42 -151 42q-227 3 -314 -111.5t-70 -294.5t164.5 -306t340.5 -118q165 7 264 71t151 161q5 11 16 9q12 0 14 -12q28 -101 105.5 -163t197.5 -62q115 0 201 73.5t125 238.5q29 109 81 107q21 0 24.5 16.5t-16.5 26.5l-226 105q-11 6 -9 17q1 11 13 14
q119 27 209.5 129.5t90.5 249.5q-4 231 -304 408q-165 96 -318 113t-288 -30q-154 -54 -263.5 -181.5t-216.5 -94.5zM1049 880l390 -184q9 -7 9 -14q0 -10 -8 -15q-68 -40 -102 -173q-27 -98 -68 -159t-120 -53q-106 24 -124.5 114t-5.5 205q22 185 -104 334.5t-267 253.5
q90 -1 187 92q68 67 141.5 124t155.5 95q103 49 206 37.5t177 -107.5q54 -70 55.5 -163.5t-70 -188.5t-178 -130t-265.5 -25q-22 1 -25.5 -16.5t16.5 -26.5z" />
</svg>
