<svg width="120" height="120" viewBox="0 0 120 120" fill="none" xmlns="http://www.w3.org/2000/svg">
<g clip-path="url(#clip0_2488_7043)">
<path d="M20 60C20 37.9086 37.9086 20 60 20V20C82.0914 20 100 37.9086 100 60V60C100 82.0914 82.0914 100 60 100V100C37.9086 100 20 82.0914 20 60V60Z" fill="white"/>
<path d="M59.9998 120C45.0899 119.64 39.1877 109.673 37.3861 100.047C36.4082 94.8144 36.8371 86.1138 37.3861 83.0083C38.2783 77.9468 39.7196 70.672 41.3152 62.2305C43.5972 50.1344 49.6538 43.2542 62.7279 40.8007L84.1132 36.7167C84.6794 33.5425 85.7533 25.1358 84.7753 19.9542C82.9566 10.2259 75.4588 0.154419 60.24 2.17953e-06C27.0916 5.07745e-06 -0.000214137 26.8516 -0.000211239 60C-0.000208341 93.1484 26.8514 120 59.9998 120Z" fill="#9EB9FF"/>
<path d="M59.9998 0C74.9097 0.360309 82.2874 10.346 84.089 19.9714C85.067 25.2045 83.1625 33.8862 82.6134 36.9917C81.7212 42.0532 80.28 49.328 78.6843 57.7695C76.4024 69.8656 70.3458 76.7458 57.2717 79.1993L37.3709 83.1066C36.8047 86.2807 34.9345 94.8595 35.9125 100.041C37.7312 109.769 44.5408 119.846 59.7596 120C92.908 120 120 93.1484 120 60C120 26.8516 93.1482 0 59.9998 0Z" fill="#5282FF"/>
</g>
<defs>
<clipPath id="clip0_2488_7043">
<rect width="120" height="120" fill="white"/>
</clipPath>
</defs>
</svg>
